<svg width="142" height="142" viewBox="0 0 142 142" fill="none" xmlns="http://www.w3.org/2000/svg">
<g clip-path="url(#clip0_2019_2)">
<rect width="142" height="142" rx="30" fill="url(#paint0_linear_2019_2)"/>
<g filter="url(#filter0_f_2019_2)">
<circle cx="71" cy="71" r="35" fill="#C88CD7" fill-opacity="0.6"/>
</g>
<path d="M67.8304 25.1412C65.8093 27.1696 62.6182 32.6142 61.5545 35.9237C59.3207 42.7561 59.3207 44.1439 61.0226 76.5446L62.6182 107.024L65.3307 115.191L68.0963 123.304H70.5429H72.9894L75.755 115.137L78.4675 107.024L79.5844 85.6723C80.1695 73.9291 80.9141 60.3176 81.18 55.4068C81.9246 42.7561 80.9141 36.8311 76.8188 30.052C73.2021 24.0737 70.4365 22.5257 67.8304 25.1412ZM74.585 41.048C77.457 42.3825 77.8293 43.023 76.3933 44.571C75.2764 45.7453 75.1168 45.7987 73.8936 44.998C73.2021 44.5176 71.7129 44.1439 70.5429 44.1439C69.3728 44.1439 67.8836 44.5176 67.1922 44.998C65.9689 45.7987 65.8093 45.7453 64.6924 44.571C64.0542 43.877 63.6819 43.023 63.8947 42.7027C64.5329 41.6352 68.575 40.0338 70.5429 40.0338C71.5534 40.0338 73.4149 40.5142 74.585 41.048ZM72.6703 106.49V113.162H70.5429H68.4154V106.49V99.8176H70.5429H72.6703V106.49Z" fill="white"/>
<path d="M34.6426 59.5169C33.5257 60.5845 33.313 61.3318 33.313 63.7872C33.313 65.3886 33.4725 66.723 33.7385 66.723C33.9512 66.723 35.6532 66.296 37.5678 65.7088L41.0249 64.748L40.9717 62.4528C40.8653 58.5561 37.2487 56.848 34.6426 59.5169Z" fill="white"/>
<path d="M101.391 59.1433C100.486 59.8906 100.167 60.7446 100.114 62.4528L100.061 64.748L103.518 65.7088C105.433 66.296 107.135 66.723 107.401 66.723C107.613 66.723 107.773 65.3886 107.773 63.7872C107.773 61.3318 107.56 60.5845 106.443 59.5169C104.901 57.9156 103.039 57.8088 101.391 59.1433Z" fill="white"/>
<path d="M39.1634 69.3385L23.4737 73.4487L23.3141 78.0926L23.1545 82.7365H25.1756C28.1008 82.6831 56.7678 80.1743 57.0338 79.9075C57.1401 79.8007 57.0869 76.4379 56.8742 72.4345C56.6083 66.1892 56.4487 65.1216 55.7041 65.175C55.2255 65.175 47.7795 67.0966 39.1634 69.3385Z" fill="white"/>
<path d="M84.2115 72.4345C83.9988 76.4379 83.9456 79.8007 84.052 79.9075C84.3179 80.1743 112.985 82.6831 115.91 82.7365H117.931L117.772 78.0926L117.612 73.4487L101.656 69.2852C92.8808 67.0433 85.4348 65.1216 85.1157 65.1216C84.7434 65.1216 84.4243 67.6838 84.2115 72.4345Z" fill="white"/>
<path d="M16.985 75.1034C15.8149 75.3169 15.7617 75.5838 15.7617 79.6406C15.7617 83.8041 15.8149 83.9108 16.985 83.5906C17.6232 83.4304 18.4742 83.2703 18.8465 83.2703C19.272 83.2703 19.4847 82.0426 19.4847 79C19.4847 74.5162 19.5379 74.623 16.985 75.1034Z" fill="white"/>
<path d="M121.601 78.9467C121.601 82.0426 121.814 83.2703 122.292 83.2703C122.612 83.2703 123.463 83.4304 124.154 83.5906C125.271 83.9108 125.324 83.8041 125.324 79.5872C125.324 76.4912 125.111 75.2635 124.686 75.2635C124.314 75.2635 123.463 75.1034 122.824 74.9433C121.654 74.623 121.601 74.7298 121.601 78.9467Z" fill="white"/>
<path d="M54.9595 112.522L50.811 114.497L50.9706 116.899L51.1301 119.301L56.1296 119.461C58.8952 119.514 61.4482 119.514 61.8205 119.354C62.2991 119.141 62.1396 118.02 61.0759 114.817C60.3313 112.415 59.5335 110.493 59.3739 110.547C59.2144 110.547 57.2465 111.454 54.9595 112.522Z" fill="white"/>
<path d="M80.0099 114.764C78.9462 118.02 78.7867 119.141 79.2653 119.354C79.6376 119.514 82.1905 119.514 84.9562 119.461L89.9556 119.301L90.1152 116.899L90.2747 114.443L86.1794 112.628C83.8925 111.614 81.9246 110.707 81.7119 110.6C81.5523 110.547 80.7545 112.415 80.0099 114.764Z" fill="white"/>
</g>
<rect x="2.5" y="2.5" width="137" height="137" rx="27.5" stroke="url(#paint1_linear_2019_2)" stroke-width="5" style="mix-blend-mode:difference"/>
<defs>
<filter id="filter0_f_2019_2" x="-4" y="-4" width="150" height="150" filterUnits="userSpaceOnUse" color-interpolation-filters="sRGB">
<feFlood flood-opacity="0" result="BackgroundImageFix"/>
<feBlend mode="normal" in="SourceGraphic" in2="BackgroundImageFix" result="shape"/>
<feGaussianBlur stdDeviation="20" result="effect1_foregroundBlur_2019_2"/>
</filter>
<linearGradient id="paint0_linear_2019_2" x1="142" y1="0" x2="0" y2="142" gradientUnits="userSpaceOnUse">
<stop stop-color="#0C0D0E"/>
<stop offset="1" stop-color="#222222"/>
</linearGradient>
<linearGradient id="paint1_linear_2019_2" x1="142" y1="142" x2="0" y2="0" gradientUnits="userSpaceOnUse">
<stop stop-color="#561C65"/>
<stop offset="1" stop-color="#C88CD7"/>
</linearGradient>
<clipPath id="clip0_2019_2">
<rect width="142" height="142" rx="30" fill="white"/>
</clipPath>
</defs>
</svg>
